<svg xmlns="http://www.w3.org/2000/svg" viewBox="0 0 483 77.66"><g id="Ebene_2" data-name="Ebene 2"><g id="logos"><polygon points="0 0.02 0 77.66 18.92 77.66 18.92 46.35 49.59 46.35 49.59 31.32 18.92 31.32 18.92 16.03 52.16 16.03 52.16 0.02 0 0.02" style="fill:#fff"/><polygon points="121.11 0.02 121.11 77.66 176.4 77.66 176.4 61.65 139.57 61.65 139.57 46.35 172.54 46.35 172.54 31.32 139.57 31.32 139.57 15.81 176.37 15.81 176.37 0.02 121.11 0.02" style="fill:#fff"/><polygon points="242.9 0.02 243.36 50.68 243.02 50.68 211.23 0.02 189.41 0.02 189.41 77.66 207.99 77.66 207.53 26.88 207.87 26.88 239.76 77.66 261.48 77.66 261.48 0.02 242.9 0.02" style="fill:#fff"/><polygon points="350.3 0.02 350.3 77.66 405.59 77.66 405.59 61.65 368.76 61.65 368.76 46.35 401.72 46.35 401.72 31.32 368.76 31.32 368.76 15.81 405.26 15.81 405.26 0.02 350.3 0.02" style="fill:#fff"/><path d="M460.61,77.65,442.39,46.84h-6.53V77.65H417.17V0h29a65.82,65.82,0,0,1,12.37,1.15,29.56,29.56,0,0,1,9.74,3.89,20.56,20.56,0,0,1,6.87,7.24,22.2,22.2,0,0,1,2.58,11.18,20.38,20.38,0,0,1-4.36,13.27,23.88,23.88,0,0,1-12.09,7.68L483,77.65Zm-.22-53.84a7.64,7.64,0,0,0-1.18-4.44,8.48,8.48,0,0,0-3-2.63c-3.15-1.68-8.18-1.59-9.6-1.59H436.26v18.1h10.19c5.1,0,8-1.1,9.33-1.76a8.17,8.17,0,0,0,4.61-7.68" style="fill:#fff"/><path d="M321.16,49.45a18.74,18.74,0,0,1-5.82,7A23.61,23.61,0,0,1,307,60.25a63.52,63.52,0,0,1-12.21,1.15V16.23A63.52,63.52,0,0,1,307,17.38a23.79,23.79,0,0,1,8.39,3.78,18.74,18.74,0,0,1,5.82,7,24.17,24.17,0,0,1,2.16,10.64,24.15,24.15,0,0,1-2.16,10.63m20.91-10.64h0a37.5,37.5,0,0,0-3.84-17.37A35.65,35.65,0,0,0,328,9.26a42.6,42.6,0,0,0-14.26-7A71.25,71.25,0,0,0,296,.05L276.14,0V77.63l20.08,0a69.61,69.61,0,0,0,17.56-2.2,42.6,42.6,0,0,0,14.26-7,35.65,35.65,0,0,0,10.19-12.18,37.5,37.5,0,0,0,3.84-17.37h0Z" style="fill:#fff"/><polygon points="110.35 61.31 82.78 61.31 82.78 0.02 63.53 0.02 63.53 77.65 110.35 77.65 110.35 61.31" style="fill:#fff"/></g></g></svg>